<?xml version="1.0" standalone="no"?>
<!DOCTYPE svg PUBLIC "-//W3C//DTD SVG 20010904//EN"
 "http://www.w3.org/TR/2001/REC-SVG-20010904/DTD/svg10.dtd">
<svg version="1.0" xmlns="http://www.w3.org/2000/svg"
 width="10rem" height="10rem" viewBox="0 0 1280.000000 651.000000"
 preserveAspectRatio="xMidYMid meet">
<g transform="translate(0.000000,651.000000) scale(0.100000,-0.100000)"
fill="#BF6C3B" stroke="none">
<path d="M12643 6491 c-34 -28 -297 -145 -414 -185 -178 -59 -302 -80 -474
-80 -82 0 -184 6 -225 13 -187 32 -407 98 -664 200 -120 48 -126 50 -182 41
-32 -5 -61 -13 -65 -17 -12 -13 -33 -6313 -21 -6325 5 -5 34 -13 63 -17 46 -6
66 -3 134 22 617 225 1174 233 1724 26 113 -42 130 -45 196 -28 l43 11 6 171
c4 146 29 4795 31 5821 l0 339 -60 13 c-33 7 -62 13 -65 13 -3 0 -15 -8 -27
-18z m-205 -1323 c9 -9 12 -81 12 -265 0 -239 -1 -253 -19 -263 -30 -15 -1473
-14 -1489 2 -13 13 -18 519 -5 531 3 4 340 7 748 7 563 0 744 -3 753 -12z m0
-900 c14 -14 17 -504 4 -526 -7 -10 -165 -12 -758 -10 l-749 3 -3 264 c-2 205
1 266 10 273 7 4 344 8 748 8 559 0 739 -3 748 -12z"/>
<path d="M5270 5883 c0 -82 5 -384 10 -673 5 -289 14 -795 20 -1125 5 -330 15
-854 20 -1165 5 -311 14 -833 20 -1160 20 -1185 30 -1684 34 -1687 1 -2 41 15
88 37 214 100 403 145 608 145 208 -1 332 -37 574 -167 60 -33 114 -60 119
-61 13 -3 17 -228 -43 3218 -5 314 -14 845 -20 1180 -6 336 -14 825 -19 1088
-5 263 -10 480 -13 482 -3 3 -65 -24 -139 -59 -213 -102 -362 -140 -559 -139
-212 0 -409 61 -624 191 -37 23 -70 42 -72 42 -2 0 -4 -66 -4 -147z"/>
<path d="M8404 5169 c-44 -47 -213 -181 -290 -231 -110 -70 -153 -93 -256
-137 -251 -107 -497 -146 -761 -121 -71 6 -131 10 -133 7 -5 -4 1371 -4569
1385 -4594 4 -8 32 9 81 52 238 207 515 347 799 405 187 38 430 48 570 23 33
-6 34 -5 28 23 -3 16 -136 461 -295 989 -160 528 -469 1554 -687 2280 -219
726 -401 1323 -404 1328 -4 4 -20 -7 -37 -24z m116 -901 c27 -61 159 -533 151
-541 -5 -5 -249 -80 -542 -168 -422 -126 -536 -156 -545 -147 -17 20 -166 540
-157 549 8 8 1053 326 1076 328 4 1 12 -9 17 -21z"/>
<path d="M1980 3297 c-1075 -5 -1956 -10 -1958 -12 -2 -2 6 -22 18 -46 44 -85
109 -259 135 -360 19 -76 28 -140 32 -234 8 -203 -22 -332 -138 -575 -29 -60
-50 -112 -48 -114 5 -4 4343 15 4347 19 2 2 -19 50 -47 106 -119 246 -157 478
-116 715 17 96 84 306 134 417 17 38 31 75 31 83 0 12 -36 14 -217 12 -120 -1
-1098 -6 -2173 -11z"/>
<path d="M1490 1458 c-800 -5 -1456 -11 -1458 -13 -3 -2 16 -50 41 -107 100
-227 131 -366 132 -593 0 -122 -5 -179 -19 -240 -24 -104 -70 -235 -110 -310
-17 -33 -33 -64 -35 -69 -3 -8 1014 -5 3366 10 l962 6 -48 97 c-54 106 -102
236 -127 339 -22 93 -29 272 -15 373 16 110 77 291 140 417 l51 102 -712 -2
c-392 -1 -1368 -5 -2168 -10z"/>
</g>
</svg>
