<?xml version="1.0" standalone="no"?>
<!DOCTYPE svg PUBLIC "-//W3C//DTD SVG 20010904//EN"
 "http://www.w3.org/TR/2001/REC-SVG-20010904/DTD/svg10.dtd">
<svg version="1.0" xmlns="http://www.w3.org/2000/svg"
 width="1280.000000pt" height="1237.000000pt" viewBox="0 0 1280.000000 1237.000000"
 preserveAspectRatio="xMidYMid meet">
<metadata>
Created by potrace 1.15, written by Peter Selinger 2001-2017
</metadata>
<g transform="translate(0.000000,1237.000000) scale(0.100000,-0.100000)"
fill="#BF6C3B" stroke="none">
<path d="M3198 9982 l-3197 -2387 -1 -3797 0 -3798 6400 0 6400 0 0 3798 -1
3797 -3196 2385 c-1757 1312 -3198 2386 -3202 2387 -3 1 -1445 -1073 -3203
-2385z m-369 -4372 c973 -734 1770 -1339 1770 -1345 0 -5 -766 -681 -1702
-1502 -936 -820 -1874 -1643 -2085 -1828 l-382 -335 0 3410 0 3410 314 -238
c173 -130 1111 -838 2085 -1572z m9480 1630 c30 -439 49 -2016 58 -4624 l6
-2019 -359 309 c-198 170 -1157 995 -2132 1833 -997 858 -1769 1528 -1764
1533 5 5 944 715 2088 1578 1405 1061 2081 1565 2086 1557 3 -7 11 -82 17
-167z m-3092 -4980 l2809 -1915 -2813 -3 c-1547 -1 -4079 -1 -5626 0 l-2813 3
2810 1917 c1546 1054 2814 1916 2818 1915 3 -1 1270 -864 2815 -1917z"/>
</g>
</svg>
