<?xml version="1.0" standalone="no"?>
<!DOCTYPE svg PUBLIC "-//W3C//DTD SVG 20010904//EN"
 "http://www.w3.org/TR/2001/REC-SVG-20010904/DTD/svg10.dtd">
<svg version="1.0" xmlns="http://www.w3.org/2000/svg"
  width="1280.000000pt" height="1258.000000pt" viewBox="0 0 1280.000000 1258.000000"
 preserveAspectRatio="xMidYMid meet">
<g transform="translate(0.000000,1258.000000) scale(0.100000,-0.100000)"
fill="#0b0909" stroke="none">
<path d="M8455 12551 c-512 -29 -1090 -183 -1548 -413 -743 -372 -1349 -945
-1749 -1653 -85 -151 -103 -187 -185 -370 -153 -343 -270 -776 -312 -1155 -24
-225 -34 -425 -28 -582 8 -176 39 -507 58 -597 69 -343 102 -464 194 -716 277
-760 832 -1473 1510 -1937 579 -397 1210 -628 1915 -700 159 -16 626 -16 795
0 784 75 1537 383 2165 886 161 129 477 446 606 606 117 146 240 324 346 500
272 449 475 1050 529 1565 24 226 35 491 27 640 -16 281 -49 551 -87 708 -11
48 -30 126 -42 175 -93 395 -293 841 -555 1237 -283 428 -643 795 -1072 1093
-221 153 -562 334 -832 440 -293 116 -661 212 -925 242 -55 6 -136 15 -180 21
-105 13 -466 19 -630 10z m525 -486 c1366 -113 2527 -963 3049 -2233 113 -275
192 -574 238 -902 25 -182 25 -713 0 -890 -74 -511 -216 -934 -447 -1335 -780
-1355 -2323 -2053 -3847 -1739 -1375 282 -2474 1364 -2777 2731 -69 313 -91
541 -83 878 13 568 133 1045 388 1545 347 681 904 1234 1587 1575 442 221 897
342 1412 378 120 9 322 5 480 -8z"/>
<path d="M4943 6222 c-143 -51 -223 -163 -223 -311 0 -90 22 -150 82 -224 l50
-62 -138 -132 c-77 -73 -144 -133 -150 -133 -7 0 -48 39 -93 88 l-80 87 -403
-401 c-717 -713 -3491 -3458 -3568 -3531 -66 -61 -81 -71 -123 -76 -140 -19
-243 -117 -283 -267 -16 -63 -16 -67 5 -136 11 -39 34 -88 50 -110 15 -21 215
-239 444 -484 372 -398 423 -448 479 -477 35 -18 84 -38 110 -45 43 -11 55
-10 120 11 40 13 92 37 116 53 84 58 135 161 134 270 l-1 58 592 588 c326 323
1053 1044 1617 1602 564 558 1202 1190 1418 1405 l393 390 -91 97 c-49 53 -90
100 -90 105 0 14 258 253 273 253 7 0 28 -15 46 -34 55 -56 122 -81 221 -81
108 0 169 26 238 99 64 67 87 129 87 231 0 113 -25 159 -171 315 -824 880
-750 805 -821 837 -72 33 -171 40 -240 15z"/>
</g>
</svg>
