<?xml version="1.0" standalone="no"?>
<!DOCTYPE svg PUBLIC "-//W3C//DTD SVG 20010904//EN"
 "http://www.w3.org/TR/2001/REC-SVG-20010904/DTD/svg10.dtd">
<svg version="1.0" xmlns="http://www.w3.org/2000/svg"
 width="10rem" height="10rem" viewBox="0 0 1280.000000 1280.000000"
 preserveAspectRatio="xMidYMid meet">
<metadata>
Created by potrace 1.15, written by Peter Selinger 2001-2017
</metadata>
<g transform="translate(0.000000,1280.000000) scale(0.100000,-0.100000)"
fill="#BF6C3B" stroke="none">
<path d="M4345 12258 c-187 -126 -474 -320 -637 -431 l-297 -200 -391 48
c-215 26 -393 45 -396 42 -3 -2 -24 -157 -47 -343 l-42 -339 -622 -420 c-342
-231 -625 -423 -628 -427 -6 -6 538 -823 570 -857 11 -11 53 13 260 153 136
92 248 166 250 164 1 -2 -11 -106 -26 -233 -16 -126 -81 -653 -144 -1170 -147
-1208 -358 -2933 -435 -3560 -207 -1688 -280 -2289 -277 -2290 3 -2 727 -92
2682 -330 611 -75 1218 -149 1350 -165 132 -16 650 -79 1150 -140 1069 -131
1021 -125 2285 -279 542 -66 1135 -139 1318 -161 184 -23 336 -39 338 -37 3 2
81 629 174 1393 185 1509 220 1801 395 3229 259 2118 419 3430 485 3975 38
316 74 609 79 650 5 41 9 75 8 77 -1 1 -171 22 -377 47 -418 51 -1231 151
-3115 381 -698 85 -1713 209 -2254 275 -542 66 -987 122 -989 124 -2 3 58 46
133 96 l136 91 -17 27 c-102 156 -567 837 -572 839 -4 1 -160 -102 -347 -229z
m639 -214 l283 -419 -135 -92 c-86 -59 -145 -93 -161 -93 -14 0 -206 23 -426
50 -220 27 -559 68 -752 92 -194 24 -353 45 -353 49 0 3 224 156 498 340 273
185 553 374 622 421 69 46 129 81 133 78 5 -4 136 -196 291 -426z m-2524
-1590 c-38 -307 -72 -568 -74 -579 -6 -24 4 120 10 155 4 23 3 23 -7 -3 l-11
-27 -41 62 c-23 34 -63 94 -89 132 -25 39 -51 76 -56 82 -5 5 -15 21 -22 35
-7 13 -16 26 -20 29 -4 3 -20 25 -35 50 -15 25 -31 47 -35 50 -4 3 -15 21 -25
40 -10 18 -23 40 -30 47 -7 7 -23 29 -36 50 -12 21 -24 40 -25 41 -1 2 -22 -9
-46 -25 -52 -35 -76 -49 -65 -38 9 11 671 462 674 460 2 -1 -29 -253 -67 -561z
m-83 -651 c-3 -10 -5 -4 -5 12 0 17 2 24 5 18 2 -7 2 -21 0 -30z m-10 -95 c-3
-7 -5 -2 -5 12 0 14 2 19 5 13 2 -7 2 -19 0 -25z"/>
</g>
</svg>
